<svg width="800" height="800" viewBox="0 0 800 800" fill="none" xmlns="http://www.w3.org/2000/svg">
<g clip-path="url(#clip0_102_46)">
<path d="M582.784 364.186C618.321 364.538 652.303 378.812 677.434 403.941C702.564 429.071 716.838 463.054 717.191 498.591C717.643 533.674 703.056 567.202 679.331 592.105C653.737 618.969 619.182 632.53 582.784 632.998C529.501 633.682 529.437 716.371 582.784 715.686C702.044 714.152 798.344 617.85 799.88 498.59C801.414 379.322 699.733 282.999 582.784 281.497C529.437 280.811 529.501 363.501 582.784 364.186ZM230.113 632.504C194.575 632.152 160.593 617.878 135.462 592.748C110.332 567.618 96.0579 533.634 95.7054 498.097C95.2546 463.012 109.838 429.485 133.566 404.577C159.159 377.714 193.712 364.158 230.112 363.689C283.394 363.004 283.459 280.313 230.112 281C110.85 282.533 14.5499 378.833 13.0171 498.097C11.4843 617.364 113.162 713.69 230.113 715.192C283.46 715.877 283.394 633.188 230.113 632.504Z" fill="#FFC400"/>
<path d="M244.062 527H229.562C229.229 527 229.062 526.792 229.062 526.375L229.312 438.438C229.312 438.104 229.479 437.938 229.812 437.938H255.688C260.312 437.938 264.562 439.062 268.438 441.312C272.312 443.562 275.396 446.583 277.688 450.375C280.021 454.167 281.188 458.458 281.188 463.25C281.188 466.375 280.708 469.208 279.75 471.75C278.792 474.292 277.667 476.438 276.375 478.188C275.125 479.938 273.979 481.229 272.938 482.062C277.562 487.188 279.875 493.208 279.875 500.125L280 526.375C280 526.792 279.792 527 279.375 527H264.875C264.542 527 264.375 526.875 264.375 526.625V500.125C264.375 497.042 263.292 494.375 261.125 492.125C258.958 489.875 256.292 488.75 253.125 488.75H244.688L244.562 526.375C244.562 526.792 244.396 527 244.062 527ZM255.688 453.25H244.688V473.375H255.688C258.312 473.375 260.646 472.396 262.688 470.438C264.771 468.479 265.812 466.083 265.812 463.25C265.812 460.542 264.812 458.208 262.812 456.25C260.812 454.25 258.438 453.25 255.688 453.25ZM286.5 526.375L302.375 438.438C302.458 438.104 302.667 437.938 303 437.938H321.562C321.896 437.938 322.104 438.104 322.188 438.438L337.438 526.375C337.479 526.792 337.312 527 336.938 527H322.75C322.333 527 322.104 526.792 322.062 526.375L320.688 517H303.25L301.875 526.375C301.833 526.792 301.625 527 301.25 527H287C286.667 527 286.5 526.792 286.5 526.375ZM311.562 467.375L305.812 503.312H318.125L312.875 467.375L312.125 462.625L311.562 467.375ZM367.188 528.25C362.646 528.25 358.458 527.083 354.625 524.75C350.833 522.417 347.792 519.312 345.5 515.438C343.25 511.521 342.125 507.229 342.125 502.562V496.688C342.125 496.229 342.333 496 342.75 496H357.125C357.458 496 357.625 496.229 357.625 496.688V502.562C357.625 505.354 358.562 507.771 360.438 509.812C362.312 511.812 364.562 512.812 367.188 512.812C369.854 512.812 372.125 511.792 374 509.75C375.875 507.667 376.812 505.271 376.812 502.562C376.812 499.438 374.771 496.708 370.688 494.375C370.021 493.958 369.146 493.458 368.062 492.875C367.021 492.25 365.771 491.542 364.312 490.75C362.854 489.958 361.438 489.188 360.062 488.438C358.688 487.646 357.354 486.896 356.062 486.188C351.396 483.438 347.917 480 345.625 475.875C343.375 471.708 342.25 467.042 342.25 461.875C342.25 457.125 343.417 452.833 345.75 449C348.083 445.208 351.125 442.208 354.875 440C358.667 437.75 362.771 436.625 367.188 436.625C371.729 436.625 375.896 437.75 379.688 440C383.479 442.292 386.5 445.333 388.75 449.125C391.042 452.917 392.188 457.167 392.188 461.875V472.375C392.188 472.708 392.021 472.875 391.688 472.875H377.312C376.979 472.875 376.812 472.708 376.812 472.375L376.688 461.875C376.688 458.875 375.75 456.438 373.875 454.562C372 452.688 369.771 451.75 367.188 451.75C364.562 451.75 362.312 452.75 360.438 454.75C358.562 456.75 357.625 459.125 357.625 461.875C357.625 464.667 358.208 467 359.375 468.875C360.583 470.75 362.771 472.542 365.938 474.25C366.271 474.417 367.042 474.833 368.25 475.5C369.458 476.167 370.792 476.917 372.25 477.75C373.75 478.542 375.104 479.271 376.312 479.938C377.521 480.562 378.25 480.938 378.5 481.062C382.75 483.438 386.104 486.354 388.562 489.812C391.062 493.271 392.312 497.521 392.312 502.562C392.312 507.438 391.188 511.812 388.938 515.688C386.646 519.562 383.604 522.625 379.812 524.875C376.021 527.125 371.812 528.25 367.188 528.25ZM425.875 527H411.438C411.062 527 410.875 526.792 410.875 526.375V453.375H394.25C393.833 453.375 393.625 453.167 393.625 452.75L393.75 438.438C393.75 438.104 393.917 437.938 394.25 437.938H442.875C443.333 437.938 443.562 438.104 443.562 438.438V452.75C443.562 453.167 443.396 453.375 443.062 453.375H426.25L426.375 526.375C426.375 526.792 426.208 527 425.875 527ZM464.938 527H450.438C450.021 527 449.812 526.792 449.812 526.375L449.938 438.438C449.938 438.104 450.104 437.938 450.438 437.938H464.812C465.146 437.938 465.312 438.104 465.312 438.438L465.438 526.375C465.438 526.792 465.271 527 464.938 527ZM500.375 528.25C495.833 528.25 491.646 527.083 487.812 524.75C484.021 522.417 480.958 519.312 478.625 515.438C476.333 511.521 475.188 507.229 475.188 502.562L475.312 462C475.312 457.25 476.458 452.979 478.75 449.188C481 445.354 484.042 442.292 487.875 440C491.708 437.667 495.875 436.5 500.375 436.5C505.042 436.5 509.229 437.646 512.938 439.938C516.688 442.229 519.688 445.312 521.938 449.188C524.229 453.021 525.375 457.292 525.375 462L525.5 502.562C525.5 507.229 524.375 511.5 522.125 515.375C519.833 519.292 516.792 522.417 513 524.75C509.208 527.083 505 528.25 500.375 528.25ZM500.375 512.812C502.958 512.812 505.208 511.771 507.125 509.688C509.042 507.562 510 505.188 510 502.562L509.875 462C509.875 459.167 508.979 456.771 507.188 454.812C505.396 452.854 503.125 451.875 500.375 451.875C497.75 451.875 495.5 452.833 493.625 454.75C491.75 456.667 490.812 459.083 490.812 462V502.562C490.812 505.354 491.75 507.771 493.625 509.812C495.5 511.812 497.75 512.812 500.375 512.812ZM549.125 527H536.312C535.646 527 535.312 526.708 535.312 526.125L535.188 438.938C535.188 438.271 535.521 437.938 536.188 437.938H547.75L569.375 488.375L568.75 438.938C568.75 438.271 569.125 437.938 569.875 437.938H582.562C583.062 437.938 583.312 438.271 583.312 438.938L583.438 526.25C583.438 526.75 583.229 527 582.812 527H571.562L549.375 479.875L550.312 526C550.312 526.667 549.917 527 549.125 527Z" fill="white"/>
<path d="M506.686 697.998L405.998 598.691L306.691 699.38" stroke="white" stroke-width="50" stroke-linecap="round" stroke-linejoin="round"/>
<path d="M301.133 269.14L399.565 370.684L501.109 272.252" stroke="white" stroke-width="50" stroke-linecap="round" stroke-linejoin="round"/>
</g>
<defs>
<clipPath id="clip0_102_46">
<rect width="800" height="800" fill="white"/>
</clipPath>
</defs>
</svg>
