<svg width="1600" height="1600" viewBox="0 0 1600 1600" fill="none" xmlns="http://www.w3.org/2000/svg">
<g clip-path="url(#clip0_102_46)">
<path d="M1165.57 728.372C1236.64 729.076 1304.61 757.624 1354.87 807.883C1405.13 858.142 1433.68 926.107 1434.38 997.181C1435.29 1067.35 1406.11 1134.4 1358.66 1184.21C1307.47 1237.94 1238.36 1265.06 1165.57 1266C1059 1267.36 1058.87 1432.74 1165.57 1431.37C1404.09 1428.3 1596.69 1235.7 1599.76 997.18C1602.83 758.645 1399.47 565.998 1165.57 562.994C1058.87 561.622 1059 727.002 1165.57 728.372ZM460.226 1265.01C389.151 1264.3 321.185 1235.76 270.924 1185.5C220.664 1135.24 192.116 1067.27 191.411 996.194C190.509 926.024 219.676 858.97 267.131 809.155C318.317 755.427 387.425 728.316 460.225 727.378C566.787 726.008 566.919 560.627 460.225 562C221.7 565.066 29.0998 757.667 26.0342 996.194C22.9686 1234.73 226.325 1427.38 460.226 1430.38C566.92 1431.75 566.789 1266.38 460.226 1265.01Z" fill="#FFC400"/>
<path d="M485.379 1069H455.473C454.785 1069 454.441 1068.57 454.441 1067.71L454.957 886.34C454.957 885.652 455.301 885.309 455.988 885.309H509.355C518.895 885.309 527.66 887.629 535.652 892.27C543.645 896.91 550.004 903.141 554.73 910.961C559.543 918.781 561.949 927.633 561.949 937.516C561.949 943.961 560.961 949.805 558.984 955.047C557.008 960.289 554.688 964.715 552.023 968.324C549.445 971.934 547.082 974.598 544.934 976.316C554.473 986.887 559.242 999.305 559.242 1013.57L559.5 1067.71C559.5 1068.57 559.07 1069 558.211 1069H528.305C527.617 1069 527.273 1068.74 527.273 1068.23V1013.57C527.273 1007.21 525.039 1001.71 520.57 997.07C516.102 992.43 510.602 990.109 504.07 990.109H486.668L486.41 1067.71C486.41 1068.57 486.066 1069 485.379 1069ZM509.355 916.891H486.668V958.398H509.355C514.77 958.398 519.582 956.379 523.793 952.34C528.09 948.301 530.238 943.359 530.238 937.516C530.238 931.93 528.176 927.117 524.051 923.078C519.926 918.953 515.027 916.891 509.355 916.891ZM572.906 1067.71L605.648 886.34C605.82 885.652 606.25 885.309 606.938 885.309H645.223C645.91 885.309 646.34 885.652 646.512 886.34L677.965 1067.71C678.051 1068.57 677.707 1069 676.934 1069H647.672C646.812 1069 646.34 1068.57 646.254 1067.71L643.418 1048.38H607.453L604.617 1067.71C604.531 1068.57 604.102 1069 603.328 1069H573.938C573.25 1069 572.906 1068.57 572.906 1067.71ZM624.598 946.023L612.738 1020.14H638.133L627.305 946.023L625.758 936.227L624.598 946.023ZM739.324 1071.58C729.957 1071.58 721.32 1069.17 713.414 1064.36C705.594 1059.55 699.32 1053.14 694.594 1045.15C689.953 1037.07 687.633 1028.22 687.633 1018.6V1006.48C687.633 1005.54 688.062 1005.06 688.922 1005.06H718.57C719.258 1005.06 719.602 1005.54 719.602 1006.48V1018.6C719.602 1024.36 721.535 1029.34 725.402 1033.55C729.27 1037.68 733.91 1039.74 739.324 1039.74C744.824 1039.74 749.508 1037.63 753.375 1033.42C757.242 1029.12 759.176 1024.18 759.176 1018.6C759.176 1012.15 754.965 1006.52 746.543 1001.71C745.168 1000.85 743.363 999.82 741.129 998.617C738.98 997.328 736.402 995.867 733.395 994.234C730.387 992.602 727.465 991.012 724.629 989.465C721.793 987.832 719.043 986.285 716.379 984.824C706.754 979.152 699.578 972.062 694.852 963.555C690.211 954.961 687.891 945.336 687.891 934.68C687.891 924.883 690.297 916.031 695.109 908.125C699.922 900.305 706.195 894.117 713.93 889.562C721.75 884.922 730.215 882.602 739.324 882.602C748.691 882.602 757.285 884.922 765.105 889.562C772.926 894.289 779.156 900.562 783.797 908.383C788.523 916.203 790.887 924.969 790.887 934.68V956.336C790.887 957.023 790.543 957.367 789.855 957.367H760.207C759.52 957.367 759.176 957.023 759.176 956.336L758.918 934.68C758.918 928.492 756.984 923.465 753.117 919.598C749.25 915.73 744.652 913.797 739.324 913.797C733.91 913.797 729.27 915.859 725.402 919.984C721.535 924.109 719.602 929.008 719.602 934.68C719.602 940.438 720.805 945.25 723.211 949.117C725.703 952.984 730.215 956.68 736.746 960.203C737.434 960.547 739.023 961.406 741.516 962.781C744.008 964.156 746.758 965.703 749.766 967.422C752.859 969.055 755.652 970.559 758.145 971.934C760.637 973.223 762.141 973.996 762.656 974.254C771.422 979.152 778.34 985.168 783.41 992.301C788.566 999.434 791.145 1008.2 791.145 1018.6C791.145 1028.65 788.824 1037.68 784.184 1045.67C779.457 1053.66 773.184 1059.98 765.363 1064.62C757.543 1069.26 748.863 1071.58 739.324 1071.58ZM860.367 1069H830.59C829.816 1069 829.43 1068.57 829.43 1067.71V917.148H795.141C794.281 917.148 793.852 916.719 793.852 915.859L794.109 886.34C794.109 885.652 794.453 885.309 795.141 885.309H895.43C896.375 885.309 896.848 885.652 896.848 886.34V915.859C896.848 916.719 896.504 917.148 895.816 917.148H861.141L861.398 1067.71C861.398 1068.57 861.055 1069 860.367 1069ZM940.934 1069H911.027C910.168 1069 909.738 1068.57 909.738 1067.71L909.996 886.34C909.996 885.652 910.34 885.309 911.027 885.309H940.676C941.363 885.309 941.707 885.652 941.707 886.34L941.965 1067.71C941.965 1068.57 941.621 1069 940.934 1069ZM1014.02 1071.58C1004.66 1071.58 996.02 1069.17 988.113 1064.36C980.293 1059.55 973.977 1053.14 969.164 1045.15C964.438 1037.07 962.074 1028.22 962.074 1018.6L962.332 934.938C962.332 925.141 964.695 916.332 969.422 908.512C974.062 900.605 980.336 894.289 988.242 889.562C996.148 884.75 1004.74 882.344 1014.02 882.344C1023.65 882.344 1032.29 884.707 1039.93 889.434C1047.67 894.16 1053.86 900.52 1058.5 908.512C1063.22 916.418 1065.59 925.227 1065.59 934.938L1065.84 1018.6C1065.84 1028.22 1063.52 1037.03 1058.88 1045.02C1054.16 1053.1 1047.88 1059.55 1040.06 1064.36C1032.24 1069.17 1023.56 1071.58 1014.02 1071.58ZM1014.02 1039.74C1019.35 1039.74 1023.99 1037.59 1027.95 1033.29C1031.9 1028.91 1033.88 1024.01 1033.88 1018.6L1033.62 934.938C1033.62 929.094 1031.77 924.152 1028.07 920.113C1024.38 916.074 1019.7 914.055 1014.02 914.055C1008.61 914.055 1003.97 916.031 1000.1 919.984C996.234 923.938 994.301 928.922 994.301 934.938V1018.6C994.301 1024.36 996.234 1029.34 1000.1 1033.55C1003.97 1037.68 1008.61 1039.74 1014.02 1039.74ZM1114.57 1069H1088.14C1086.77 1069 1086.08 1068.4 1086.08 1067.2L1085.82 887.371C1085.82 885.996 1086.51 885.309 1087.89 885.309H1111.73L1156.34 989.336L1155.05 887.371C1155.05 885.996 1155.82 885.309 1157.37 885.309H1183.54C1184.57 885.309 1185.08 885.996 1185.08 887.371L1185.34 1067.45C1185.34 1068.48 1184.91 1069 1184.05 1069H1160.85L1115.09 971.805L1117.02 1066.94C1117.02 1068.31 1116.2 1069 1114.57 1069Z" fill="black"/>
<path d="M1013.37 1396L811.995 1197.38L613.382 1398.76" stroke="black" stroke-width="50" stroke-linecap="round" stroke-linejoin="round"/>
<path d="M602.266 538.28L799.13 741.368L1002.22 544.504" stroke="black" stroke-width="50" stroke-linecap="round" stroke-linejoin="round"/>
</g>
<defs>
<clipPath id="clip0_102_46">
<rect width="1600" height="1600" fill="white"/>
</clipPath>
</defs>
</svg>
